ply
format ascii 1.0
element vertex 16
property float x
property float y
property float z
property uchar diffuse_red
property uchar diffuse_green
property uchar diffuse_blue
end_header
-0.485035 -0.00316196 -0.10148 255 0 255
-0.457054 1.11465e-008 1.16109 255 0 255
-1.36404 0.0186251 -0.49529 255 0 255
-1.48264 -3.83664e-008 0.340697 255 0 255
-2.18512 0.195051 0.770164 255 0 255
-1.72121 0.429638 2.11034 255 0 255
-3.00386 -0.0141339 1.20123 255 0 255
-2.70025 0.0547621 2.29461 0 255 0
-1.74808 0.0899395 3.3477 255 0 255
-3.20833 0.58513 2.51816 255 0 255
-3.02609 1.06896 1.33364 255 0 255
-1.57167 -0.278316 -2.67934 255 0 255
-0.485099 -0.127095 -2.88762 255 0 255
-1.49022 1.20439e-008 -5.16785 255 0 255
-0.382897 -0.121704 -5.19282 255 0 255
-0.197762 0.277183 -6.21992 255 0 255
