ply
format ascii 1.0
element vertex 43
property float x
property float y
property float z
end_header
0.461045 -0.0116893 2.44607
1.02623 -0.0146785 -0.0537906
0.791513 0.316834 -0.535874
0.604667 0.587914 -0.973035
0.623314 0.618679 -1.08302
0.597703 -0.054099 0.20531
0.343967 0.435972 -1.48064
0.483239 0.586941 -1.36952
0.517062 -0.0608371 1.66353
-0.120914 -0.207133 2.60619
0.11047 -0.140573 1.21596
-2.4256 -0.263543 0.602583
-2.64514 -0.264461 0.671093
-2.82652 -0.198917 0.577352
-1.32205 -0.407795 2.62524
-1.08936 -0.411145 2.63525
-1.84396 -0.295659 2.57803
-2.08007 -0.234604 2.49656
-2.30351 0.014142 2.18739
-1.56663 -0.33449 2.5801
-2.37163 0.287071 1.68929
-0.435554 -0.324838 2.65092
0.1974 -0.0780955 2.54079
-1.9502 0.0552696 0.32389
-2.93739 0.067416 0.255341
-2.644 -0.68294 -1.51574
-2.66616 -0.639863 -1.44954
-2.61683 -0.663115 -1.57739
-3.35799 -0.142093 -1.74568
-3.64767 1.29688e-008 -1.92593
-2.58832 -0.479739 -1.74091
-3.7639 -0.0054215 -1.97178
-3.30633 -0.215018 -1.68706
-1.21875 0.00854868 -0.140148
-3.86879 -0.0104213 -2.01421
-3.10307 -0.312043 -1.55396
-4.1388 -0.0040412 -2.04519
-4.2189 0.0540284 -2.08549
-2.54203 -0.0941972 -1.90497
-2.48173 0.00572019 -1.9972
-1.69739 0.628866 -2.13917
-2.37233 0.0926149 -2.05591
-1.90219 0.914709 -2.2164
