ply
format ascii 1.0
element vertex 46
property float x
property float y
property float z
property uchar diffuse_red
property uchar diffuse_green
property uchar diffuse_blue
end_header
1.475 -0.0572937 2.35784 0 255 0
1.84614 -0.0789752 3.10154 0 255 0
1.88542 0.00411467 2.93115 0 255 0
2.12287 -0.0147044 3.08886 0 255 0
1.59631 -0.133712 2.42903 0 255 0
1.37926 0.00567769 2.2923 0 255 0
1.74333 -0.1719 2.35445 0 255 0
1.72245 -0.217981 2.43202 0 255 0
2.19131 0.00760172 2.977 0 255 0
2.39758 -0.0182571 2.55223 0 255 0
2.58663 -0.0515927 2.6415 0 255 0
2.36237 0.039203 2.81349 0 255 0
2.22905 0.105981 2.39549 0 255 0
2.70147 0.0168589 2.57847 0 255 0
2.63508 -0.0428324 3.02431 0 255 0
2.76564 -0.0401586 3.48506 0 255 0
2.91374 0.0550498 3.72469 255 0 255
2.72125 0.0984578 2.52282 255 0 255
2.75131 0.253709 2.4579 255 0 255
2.84882 0.352314 2.57265 255 0 255
2.90212 0.268719 2.71181 0 255 0
2.98775 0.0756469 2.95343 255 0 255
3.09439 0.0738927 3.02943 255 0 255
2.99346 0.179161 2.86164 255 0 255
2.58906 -0.00889321 3.21403 255 0 255
1.9123 0.0107742 3.09241 255 0 255
2.85046 2.09333e-007 3.0848 255 0 255
1.70816 -0.127658 3.21958 255 0 255
1.88482 -0.109063 3.84717 255 0 255
1.82562 -0.0282747 3.69048 255 0 255
1.60369 5.91064e-008 3.07541 255 0 255
2.13501 -0.180177 3.92051 255 0 255
2.82453 -8.09123e-008 3.88499 255 0 255
2.52441 -0.140469 3.93968 255 0 255
1.26334 0.00544276 2.24553 255 0 255
1.73996 0.0342341 3.01032 255 0 255
1.13289 0.0197424 2.21935 255 0 255
1.80025 0.0416805 3.60433 255 0 255
1.92435 0.15031 2.73268 255 0 255
1.75237 0.00818367 2.28024 255 0 255
2.17937 0.160261 2.67476 0 255 0
2.38566 0.0734736 2.92021 255 0 255
2.06255 0.266753 2.25625 0 255 0
1.60318 0.0772402 2.99932 0 255 0
1.7946 0.148627 2.2311 255 0 255
1.97425 0.205144 2.21913 0 255 0
