ply
format ascii 1.0
element vertex 25
property float x
property float y
property float z
end_header
2.91374 0.0550498 3.72469
2.72125 0.0984578 2.52282
2.75131 0.253709 2.4579
2.84882 0.352314 2.57265
2.98775 0.0756469 2.95343
3.09439 0.0738927 3.02943
2.99346 0.179161 2.86164
2.58906 -0.00889321 3.21403
1.9123 0.0107742 3.09241
2.85046 2.09333e-007 3.0848
1.70816 -0.127658 3.21958
1.88482 -0.109063 3.84717
1.82562 -0.0282747 3.69048
1.60369 5.91064e-008 3.07541
2.13501 -0.180177 3.92051
2.82453 -8.09123e-008 3.88499
2.52441 -0.140469 3.93968
1.26334 0.00544276 2.24553
1.73996 0.0342341 3.01032
1.13289 0.0197424 2.21935
1.80025 0.0416805 3.60433
1.92435 0.15031 2.73268
1.75237 0.00818367 2.28024
2.38566 0.0734736 2.92021
1.7946 0.148627 2.2311
