ply
format ascii 1.0
element vertex 28
property float x
property float y
property float z
property uchar diffuse_red
property uchar diffuse_green
property uchar diffuse_blue
end_header
5.12854 -0.0117759 -0.000124465 0 255 0
3.48819 -0.0465319 -0.0083579 0 255 0
1.80118 -0.0751489 -4.39883 0 255 0
2.95897 -0.125076 -1.84488 0 255 0
2.73206 -0.116233 -2.41052 0 255 0
2.45352 -0.0356507 -2.87204 0 255 0
2.07206 -0.0141923 -3.3467 0 255 0
3.35618 -0.0559 -0.299168 0 255 0
3.18453 -0.0656871 -1.10416 0 255 0
3.62799 -4.71161e-008 0.332199 255 0 255
0.916025 -0.110771 -5.08818 255 0 255
0.239921 -0.00219483 -5.74177 0 255 0
-0.459079 -0.0222502 -3.84289 0 255 0
-0.939256 7.52749e-009 -3.45579 255 0 255
-1.49894 0.0402451 -3.43505 255 0 255
-1.98442 0.129222 -3.60049 0 255 0
-3.22025 0.15858 -6.1925 255 0 255
6.39668 0.0141015 -1.22183 0 255 0
6.8042 -0.0145609 -1.18942 0 255 0
5.66672 -1.49924e-007 -0.555666 0 255 0
7.57943 0.00492284 -1.95134 0 255 0
8.51178 0.0433143 -2.65344 255 0 255
-16.8033 1.24657 -0.118842 0 255 0
-15.3322 0.482433 -2.99346 0 255 0
-17.295 3.27911 4.24195 255 0 255
-18.0371 1.01959 -1.88353 255 0 255
-16.9329 0.756286 -1.97972 255 0 255
-14.6221 0.454906 -1.02416 255 0 255
